<svg width="23" height="23" viewBox="0 0 23 23" fill="none" xmlns="http://www.w3.org/2000/svg">
<path d="M17.0002 17.806C17.2271 17.8247 17.4566 17.8343 17.6883 17.8343C18.6493 17.8343 19.5719 17.67 20.4296 17.3679C20.4354 17.295 20.4383 17.2212 20.4383 17.1468C20.4383 15.628 19.2071 14.3968 17.6883 14.3968C17.113 14.3968 16.579 14.5735 16.1375 14.8755M17.0002 17.806C17.0003 17.8154 17.0003 17.8249 17.0003 17.8343C17.0003 18.0405 16.989 18.2441 16.9668 18.4445C15.3565 19.3685 13.4901 19.8968 11.5003 19.8968C9.51052 19.8968 7.64414 19.3685 6.03377 18.4445C6.01166 18.2441 6.00031 18.0405 6.00031 17.8343C6.00031 17.8249 6.00033 17.8155 6.00038 17.8061M17.0002 17.806C16.9948 16.7275 16.679 15.7224 16.1375 14.8755M16.1375 14.8755C15.1604 13.3474 13.4487 12.3343 11.5003 12.3343C9.5522 12.3343 7.84065 13.3471 6.86352 14.8749M6.86352 14.8749C6.42218 14.5732 5.88844 14.3968 5.31348 14.3968C3.79469 14.3968 2.56348 15.628 2.56348 17.1468C2.56348 17.2212 2.56643 17.295 2.57224 17.3679C3.4299 17.67 4.3525 17.8343 5.31348 17.8343C5.54479 17.8343 5.77388 17.8248 6.00038 17.8061M6.86352 14.8749C6.32179 15.722 6.00579 16.7273 6.00038 17.8061M14.2503 6.83429C14.2503 8.35307 13.0191 9.58429 11.5003 9.58429C9.98152 9.58429 8.75031 8.35307 8.75031 6.83429C8.75031 5.31551 9.98152 4.08429 11.5003 4.08429C13.0191 4.08429 14.2503 5.31551 14.2503 6.83429ZM19.7503 9.58429C19.7503 10.7234 18.8269 11.6468 17.6878 11.6468C16.5487 11.6468 15.6253 10.7234 15.6253 9.58429C15.6253 8.4452 16.5487 7.52179 17.6878 7.52179C18.8269 7.52179 19.7503 8.4452 19.7503 9.58429ZM7.37531 9.58429C7.37531 10.7234 6.45189 11.6468 5.31281 11.6468C4.17372 11.6468 3.25031 10.7234 3.25031 9.58429C3.25031 8.4452 4.17372 7.52179 5.31281 7.52179C6.45189 7.52179 7.37531 8.4452 7.37531 9.58429Z" stroke="#0679C6" stroke-width="1.5" stroke-linecap="round" stroke-linejoin="round"/>
</svg>
