<svg width="23" height="23" viewBox="0 0 23 23" fill="none" xmlns="http://www.w3.org/2000/svg">
<path d="M22.4961 14.4209V20.0762L17.6875 22.4805L12.8789 20.0762V14.4209L17.6875 12.0166L22.4961 14.4209ZM12.8711 12.0254V12.8789L11.5039 13.5625V13.5586H11.4912L11.498 13.5547L7.37305 15.6172L7.37109 15.6133V20.5088H7.38379L7.37695 20.5127L11.4961 18.4424V19.9795L6.6875 22.3828L0.503906 19.2812V12.0254L6.6875 8.93359L12.8711 12.0254ZM18.373 17.3252L18.3711 17.3213V20.6055H18.3838L18.377 20.6094L21.127 19.2344L21.1289 19.2383V15.9541H21.1162L21.123 15.9502L18.373 17.3252ZM17.6855 13.5439L15.0967 14.833L15.1016 14.8428L15.0967 14.8408L17.6855 16.1406L17.6846 16.1426L17.6895 16.1406L20.2783 14.8408L20.2734 14.8311L20.2783 14.833L17.6895 13.5439L17.6904 13.542L17.6855 13.5439ZM6.68555 10.4609L2.72168 12.4482L2.72656 12.458L2.72168 12.4561L6.68555 14.4326L6.68457 14.4346L6.68945 14.4326L10.6533 12.4561L10.6484 12.4463L10.6533 12.4482L6.68945 10.4609L6.69043 10.459L6.68555 10.4609ZM16.8359 6.58105L11.8672 3.7373L11.8691 3.73438L11.8633 3.73633L9.59668 4.875L9.60156 4.88477L9.59668 4.88281L14.9355 7.54688L14.9346 7.54883L14.9395 7.54688L16.8408 6.59082L16.8359 6.58105ZM14.9355 2.2002L13.335 3.00586L13.3398 3.01562L18.3193 5.85938L18.3174 5.8623L18.3232 5.86035L20.2783 4.88281L20.2734 4.87305L20.2783 4.875L14.9395 2.2002L14.9404 2.19824L14.9355 2.2002ZM17.002 17.3252L14.252 15.9502L14.2461 15.9619V19.2305H14.2412L14.248 19.2344L16.998 20.6094L17.0039 20.5977V17.3291H17.0088L17.002 17.3252ZM6.00195 15.6172L1.87695 13.5547L1.87109 13.5664V18.4355H1.86621L1.87305 18.4395L5.99805 20.5127L6.00391 20.501V15.6211H6.00879L6.00195 15.6172ZM14.252 8.73145L8.75195 5.98145L8.74609 5.99316V8.41699L7.37891 7.7334V4.45215L14.9375 0.672852L22.4961 4.45215V12.875L21.1289 12.1914V5.98535H21.1162L21.123 5.98145L15.623 8.73145L15.6211 8.72754V11.5039L14.2539 12.1875V8.73535H14.2588L14.252 8.73145Z" fill="#0679C6" stroke="#0679C6" stroke-width="0.0078125"/>
</svg>
