<svg width="23" height="23" viewBox="0 0 23 23" fill="none" xmlns="http://www.w3.org/2000/svg">
<path d="M6 6.95165V6.14679C6 5.0077 6.92341 4.08429 8.0625 4.08429H14.9375C16.0766 4.08429 17 5.0077 17 6.14679V6.95165M6 6.95165C6.21504 6.87565 6.44644 6.83429 6.6875 6.83429H16.3125C16.5536 6.83429 16.785 6.87565 17 6.95165M6 6.95165C5.19893 7.23479 4.625 7.99876 4.625 8.89679V9.70165M17 6.95165C17.8011 7.23479 18.375 7.99876 18.375 8.89679V9.70165M18.375 9.70165C18.16 9.62565 17.9286 9.58429 17.6875 9.58429H5.3125C5.07144 9.58429 4.84004 9.62565 4.625 9.70165M18.375 9.70165C19.1761 9.98479 19.75 10.7488 19.75 11.6468V17.1468C19.75 18.2859 18.8266 19.2093 17.6875 19.2093H5.3125C4.17341 19.2093 3.25 18.2859 3.25 17.1468V11.6468C3.25 10.7488 3.82393 9.98479 4.625 9.70165" stroke="#0679C6" stroke-width="1.5" stroke-linecap="round" stroke-linejoin="round"/>
</svg>
