<svg width="23" height="23" viewBox="0 0 23 23" fill="none" xmlns="http://www.w3.org/2000/svg">
<path d="M2.5625 3.39679H3.83271C4.29992 3.39679 4.70876 3.71089 4.82914 4.16232L5.1804 5.47954M7.375 13.7093C5.85622 13.7093 4.625 14.9405 4.625 16.4593H19.0625M7.375 13.7093H17.6584C18.6861 11.6004 19.5829 9.41594 20.3382 7.16658C15.9734 6.05187 11.3996 5.45929 6.6875 5.45929C6.18352 5.45929 5.68113 5.46607 5.1804 5.47954M7.375 13.7093L5.1804 5.47954M6 19.2093C6 19.589 5.6922 19.8968 5.3125 19.8968C4.9328 19.8968 4.625 19.589 4.625 19.2093C4.625 18.8296 4.9328 18.5218 5.3125 18.5218C5.6922 18.5218 6 18.8296 6 19.2093ZM17.6875 19.2093C17.6875 19.589 17.3797 19.8968 17 19.8968C16.6203 19.8968 16.3125 19.589 16.3125 19.2093C16.3125 18.8296 16.6203 18.5218 17 18.5218C17.3797 18.5218 17.6875 18.8296 17.6875 19.2093Z" stroke="#0679C6" stroke-width="1.5" stroke-linecap="round" stroke-linejoin="round"/>
</svg>
