<svg width="20" height="20" viewBox="0 0 20 20" fill="none" xmlns="http://www.w3.org/2000/svg">
<path d="M10 4V16M7 13.1818L7.87887 13.841C9.0504 14.7197 10.9498 14.7197 12.1214 13.841C13.2929 12.9623 13.2929 11.5377 12.1214 10.659C11.5355 10.2196 10.7677 9.99996 9.99989 10C9.27496 10 8.5502 9.7804 7.99709 9.34102C6.891 8.46234 6.891 7.03772 7.9971 6.15904C9.10319 5.28036 10.8965 5.28036 12.0026 6.15904L12.4175 6.48863M19 10C19 14.9706 14.9706 19 10 19C5.02944 19 1 14.9706 1 10C1 5.02944 5.02944 1 10 1C14.9706 1 19 5.02944 19 10Z" stroke="#82D8E0" stroke-width="1.5" stroke-linecap="round" stroke-linejoin="round"/>
</svg>
