<svg width="24" height="24" viewBox="0 0 24 24" fill="none" xmlns="http://www.w3.org/2000/svg">
<path d="M3.98307 8.22257C3.05997 9.31382 2.35556 10.596 1.9375 12.0015C3.2288 16.338 7.24625 19.5 12.0022 19.5C12.9948 19.5 13.9552 19.3623 14.8654 19.1049M6.23077 6.22763C7.88703 5.13558 9.87085 4.5 12.0031 4.5C16.7591 4.5 20.7766 7.66205 22.0679 11.9985C21.356 14.3919 19.8137 16.4277 17.7751 17.772M6.23077 6.22763L3.00314 3M6.23077 6.22763L9.88182 9.87868M17.7751 17.772L21.0031 21M17.7751 17.772L14.1245 14.1213M14.1245 14.1213C14.6674 13.5784 15.0031 12.8284 15.0031 12C15.0031 10.3431 13.66 9 12.0031 9C11.1747 9 10.4247 9.33579 9.88182 9.87868M14.1245 14.1213L9.88182 9.87868" stroke="#0F172A" stroke-width="1.5" stroke-linecap="round" stroke-linejoin="round"/>
</svg>
