<svg width="20" height="16" viewBox="0 0 20 16" fill="none" xmlns="http://www.w3.org/2000/svg">
<path d="M12.25 11.75V13.625C12.25 14.1223 12.0525 14.5992 11.7008 14.9508C11.3492 15.3025 10.8723 15.5 10.375 15.5H2.875C2.37772 15.5 1.90081 15.3025 1.54917 14.9508C1.19754 14.5992 1 14.1223 1 13.625V2.375C1 1.87772 1.19754 1.40081 1.54917 1.04917C1.90081 0.697544 2.37772 0.5 2.875 0.5H10C11.0355 0.5 12.25 1.33953 12.25 2.375V4.25M15.25 11.75L19 8L15.25 4.25M6.25 8H18.25" stroke="#5685FA" stroke-linecap="round" stroke-linejoin="round"/>
</svg>
