<svg width="48" height="48" viewBox="0 0 48 48" fill="none" xmlns="http://www.w3.org/2000/svg">
<g clip-path="url(#clip0_2811_2113)">
<rect width="48" height="48" rx="24" fill="#F2F5F9"/>
<circle cx="24.0003" cy="16.2357" r="10.5882" fill="#CBD5E1"/>
<path fill-rule="evenodd" clip-rule="evenodd" d="M5.64746 48.0004C5.64746 45.5903 6.12217 43.2037 7.0445 40.977C7.96682 38.7504 9.31868 36.7271 11.0229 35.0229C12.7271 33.3187 14.7504 31.9668 16.977 31.0445C19.2037 30.1222 21.5903 29.6475 24.0004 29.6475C26.4105 29.6475 28.7971 30.1222 31.0238 31.0445C33.2505 31.9668 35.2737 33.3187 36.9779 35.0229C38.6821 36.7271 40.034 38.7504 40.9563 40.977C41.8786 43.2037 42.3533 45.5903 42.3533 48.0004H5.64746Z" fill="#CBD5E1"/>
</g>
<rect x="0.5" y="0.5" width="47" height="47" rx="23.5" stroke="#6A93FB"/>
<defs>
<clipPath id="clip0_2811_2113">
<rect width="48" height="48" rx="24" fill="white"/>
</clipPath>
</defs>
</svg>
