<svg width="24" height="24" viewBox="0 0 24 24" fill="none" xmlns="http://www.w3.org/2000/svg">
<path d="M3 10.25L5.25 12.5M3 10.25L5.25 8M3 10.25H7.1C9.34 10.25 10.46 10.25 11.316 10.686C12.0686 11.0695 12.6805 11.6814 13.064 12.434C13.5 13.29 13.5 14.41 13.5 16.65V17" stroke="#06B6C6" stroke-width="1.5" stroke-linecap="round" stroke-linejoin="round"/>
<path d="M19.82 8.50018H16.5C16.2348 8.50018 15.9804 8.39482 15.7929 8.20728C15.6054 8.01975 15.5 7.76539 15.5 7.50018V4.18018C15.873 4.35018 16.152 4.65218 16.437 4.93718L19.063 7.56318C19.348 7.84818 19.651 8.12718 19.82 8.50018Z" fill="#06B6C6"/>
<path d="M7.25 10.0001C7.25 10.199 7.32902 10.3897 7.46967 10.5304C7.61032 10.671 7.80109 10.7501 8 10.7501C8.19891 10.7501 8.38968 10.671 8.53033 10.5304C8.67098 10.3897 8.75 10.199 8.75 10.0001H7.25ZM8.75 14.0001C8.75 13.8012 8.67098 13.6104 8.53033 13.4697C8.38968 13.3291 8.19891 13.2501 8 13.2501C7.80109 13.2501 7.61032 13.3291 7.46967 13.4697C7.32902 13.6104 7.25 13.8012 7.25 14.0001H8.75ZM19.82 8.50007V9.25007C19.9455 9.25008 20.0689 9.21861 20.1791 9.15856C20.2892 9.0985 20.3826 9.01176 20.4505 8.9063C20.5185 8.80083 20.5589 8.68 20.5681 8.55487C20.5772 8.42974 20.5549 8.30431 20.503 8.19007L19.82 8.50007ZM15.5 4.18007L15.81 3.49707C15.6958 3.44521 15.5703 3.42284 15.4452 3.43201C15.3201 3.44117 15.1992 3.48159 15.0938 3.54954C14.9883 3.6175 14.9016 3.71083 14.8415 3.82098C14.7815 3.93114 14.75 4.0546 14.75 4.18007H15.5ZM16.8 19.2501H11.2V20.7501H16.8V19.2501ZM11.2 4.75007H14.175V3.25007H11.2V4.75007ZM19.25 9.82507V16.8001H20.75V9.82507H19.25ZM15.907 5.46707L18.532 8.09307L19.593 7.03307L16.968 4.40707L15.907 5.46707ZM8.75 10.0001V7.20007H7.25V10.0001H8.75ZM8.75 16.8001V14.0001H7.25V16.8001H8.75ZM18.532 8.09307C18.904 8.46407 18.999 8.56707 19.066 8.67507L20.345 7.89207C20.164 7.59607 19.914 7.35407 19.593 7.03307L18.532 8.09307ZM16.968 4.40707C16.647 4.08707 16.404 3.83707 16.108 3.65507L15.325 4.93507C15.433 5.00107 15.535 5.09507 15.907 5.46707L16.968 4.40707ZM14.175 4.75007C14.752 4.75007 15.052 4.76807 15.325 4.93507L16.108 3.65507C15.421 3.23507 14.691 3.25007 14.174 3.25007L14.175 4.75007ZM20.75 9.82507C20.75 9.30907 20.766 8.57907 20.345 7.89207L19.066 8.67507C19.234 8.94807 19.25 9.24807 19.25 9.82507H20.75ZM19.82 7.75007H16.5V9.25007H19.82V7.75007ZM16.25 7.50007V4.18007H14.75V7.50007H16.25ZM16.5 7.75007C16.4337 7.75007 16.3701 7.72373 16.3232 7.67684C16.2763 7.62996 16.25 7.56637 16.25 7.50007H14.75C14.75 8.46607 15.534 9.25007 16.5 9.25007V7.75007ZM15.19 4.86207C15.41 4.96207 15.581 5.14107 15.907 5.46707L16.967 4.40707C16.722 4.16107 16.336 3.73707 15.81 3.49707L15.19 4.86207ZM18.532 8.09307C18.858 8.41907 19.037 8.59007 19.138 8.81107L20.503 8.19007C20.263 7.66507 19.839 7.27907 19.593 7.03307L18.532 8.09307ZM11.2 19.2501C10.071 19.2501 9.534 19.0631 9.248 18.7871C8.968 18.5171 8.75 17.9871 8.75 16.8001H7.25C7.25 18.0841 7.468 19.1541 8.207 19.8661C8.939 20.5731 10.002 20.7501 11.2 20.7501V19.2501ZM19.25 16.8001C19.25 17.9291 19.063 18.4661 18.787 18.7521C18.517 19.0321 17.987 19.2501 16.8 19.2501V20.7501C18.084 20.7501 19.154 20.5321 19.866 19.7931C20.573 19.0611 20.75 17.9981 20.75 16.8001H19.25ZM8.75 7.20007C8.75 6.07107 8.937 5.53407 9.213 5.24807C9.483 4.96807 10.013 4.75007 11.2 4.75007V3.25007C9.916 3.25007 8.846 3.46807 8.133 4.20707C7.427 4.93907 7.25 6.00207 7.25 7.20007H8.75Z" fill="#06B6C6"/>
</svg>
