<svg width="24" height="24" viewBox="0 0 24 24" fill="none" xmlns="http://www.w3.org/2000/svg">
<path d="M13 17.5L10.5 15M13 17.5L15.5 15M13 17.5V16.4C13 14.16 13 13.04 12.564 12.184C12.1805 11.4314 11.5686 10.8195 10.816 10.436C9.96 10 8.84 10 6.6 10H4" stroke="#06B6C6" stroke-width="1.5" stroke-linecap="round" stroke-linejoin="round"/>
<path d="M18.82 8.50018H15.5C15.2348 8.50018 14.9804 8.39482 14.7929 8.20728C14.6054 8.01975 14.5 7.76539 14.5 7.50018V4.18018C14.873 4.35018 15.152 4.65218 15.437 4.93718L18.063 7.56318C18.348 7.84818 18.651 8.12718 18.82 8.50018Z" fill="#06B6C6"/>
<path d="M6.25 10.0001C6.25 10.199 6.32902 10.3897 6.46967 10.5304C6.61032 10.671 6.80109 10.7501 7 10.7501C7.19891 10.7501 7.38968 10.671 7.53033 10.5304C7.67098 10.3897 7.75 10.199 7.75 10.0001H6.25ZM7.75 14.0001C7.75 13.8012 7.67098 13.6104 7.53033 13.4697C7.38968 13.3291 7.19891 13.2501 7 13.2501C6.80109 13.2501 6.61032 13.3291 6.46967 13.4697C6.32902 13.6104 6.25 13.8012 6.25 14.0001H7.75ZM18.82 8.50007V9.25007C18.9455 9.25008 19.0689 9.21861 19.1791 9.15856C19.2892 9.0985 19.3826 9.01176 19.4505 8.9063C19.5185 8.80083 19.5589 8.68 19.5681 8.55487C19.5772 8.42974 19.5549 8.30431 19.503 8.19007L18.82 8.50007ZM14.5 4.18007L14.81 3.49707C14.6958 3.44521 14.5703 3.42284 14.4452 3.43201C14.3201 3.44117 14.1992 3.48159 14.0938 3.54954C13.9883 3.6175 13.9016 3.71083 13.8415 3.82098C13.7815 3.93114 13.75 4.0546 13.75 4.18007H14.5ZM15.8 19.2501H10.2V20.7501H15.8V19.2501ZM10.2 4.75007H13.175V3.25007H10.2V4.75007ZM18.25 9.82507V16.8001H19.75V9.82507H18.25ZM14.907 5.46707L17.532 8.09307L18.593 7.03307L15.968 4.40707L14.907 5.46707ZM7.75 10.0001V7.20007H6.25V10.0001H7.75ZM7.75 16.8001V14.0001H6.25V16.8001H7.75ZM17.532 8.09307C17.904 8.46407 17.999 8.56707 18.066 8.67507L19.345 7.89207C19.164 7.59607 18.914 7.35407 18.593 7.03307L17.532 8.09307ZM15.968 4.40707C15.647 4.08707 15.404 3.83707 15.108 3.65507L14.325 4.93507C14.433 5.00107 14.535 5.09507 14.907 5.46707L15.968 4.40707ZM13.175 4.75007C13.752 4.75007 14.052 4.76807 14.325 4.93507L15.108 3.65507C14.421 3.23507 13.691 3.25007 13.174 3.25007L13.175 4.75007ZM19.75 9.82507C19.75 9.30907 19.766 8.57907 19.345 7.89207L18.066 8.67507C18.234 8.94807 18.25 9.24807 18.25 9.82507H19.75ZM18.82 7.75007H15.5V9.25007H18.82V7.75007ZM15.25 7.50007V4.18007H13.75V7.50007H15.25ZM15.5 7.75007C15.4337 7.75007 15.3701 7.72373 15.3232 7.67684C15.2763 7.62996 15.25 7.56637 15.25 7.50007H13.75C13.75 8.46607 14.534 9.25007 15.5 9.25007V7.75007ZM14.19 4.86207C14.41 4.96207 14.581 5.14107 14.907 5.46707L15.967 4.40707C15.722 4.16107 15.336 3.73707 14.81 3.49707L14.19 4.86207ZM17.532 8.09307C17.858 8.41907 18.037 8.59007 18.138 8.81107L19.503 8.19007C19.263 7.66507 18.839 7.27907 18.593 7.03307L17.532 8.09307ZM10.2 19.2501C9.071 19.2501 8.534 19.0631 8.248 18.7871C7.968 18.5171 7.75 17.9871 7.75 16.8001H6.25C6.25 18.0841 6.468 19.1541 7.207 19.8661C7.939 20.5731 9.002 20.7501 10.2 20.7501V19.2501ZM18.25 16.8001C18.25 17.9291 18.063 18.4661 17.787 18.7521C17.517 19.0321 16.987 19.2501 15.8 19.2501V20.7501C17.084 20.7501 18.154 20.5321 18.866 19.7931C19.573 19.0611 19.75 17.9981 19.75 16.8001H18.25ZM7.75 7.20007C7.75 6.07107 7.937 5.53407 8.213 5.24807C8.483 4.96807 9.013 4.75007 10.2 4.75007V3.25007C8.916 3.25007 7.846 3.46807 7.133 4.20707C6.427 4.93907 6.25 6.00207 6.25 7.20007H7.75Z" fill="#06B6C6"/>
<path d="M18.82 8.50018H15.5C15.2348 8.50018 14.9804 8.39482 14.7929 8.20728C14.6054 8.01975 14.5 7.76539 14.5 7.50018V4.18018C14.873 4.35018 15.152 4.65218 15.437 4.93718L18.063 7.56318C18.348 7.84818 18.651 8.12718 18.82 8.50018Z" fill="#06B6C6"/>
</svg>
