<svg width="326" height="254" viewBox="0 0 326 254" fill="none" xmlns="http://www.w3.org/2000/svg">
<g clip-path="url(#clip0_702_11643)">
<path d="M38.5237 174.937H26.8935V214.169H8.66173V174.937H0V161.941H8.66173V160.566C8.66173 153.469 10.6333 147.903 14.5765 143.889C18.5197 139.874 24.7225 137.856 33.1405 137.856C35.3337 137.856 37.4603 137.945 39.4541 138.122C41.4478 138.3 43.353 138.566 45.103 138.921H63.3347V198.179C63.3347 199.532 63.6449 200.575 64.243 201.329C64.8411 202.083 66.0374 202.437 67.7653 202.437C68.8286 202.437 70.1135 202.327 71.642 202.127L72.218 213.859C70.6895 214.28 68.9615 214.613 67.0343 214.879C65.0848 215.123 63.1132 215.256 61.053 215.256C58.0181 215.256 55.4705 214.835 53.4103 213.97C51.3501 213.127 49.7329 211.974 48.5145 210.554C47.2961 209.135 46.4322 207.516 45.9005 205.698C45.3689 203.879 45.103 202.016 45.103 200.109V151.407C42.8877 150.83 40.318 150.564 37.3496 150.564C33.6944 150.564 31.036 151.296 29.3746 152.76C27.7131 154.223 26.8713 156.796 26.8713 160.477V161.963H38.5015V174.959L38.5237 174.937Z" fill="#5685FA"/>
<path d="M135.819 188.044C135.819 191.881 135.176 195.452 133.869 198.756C132.562 202.06 130.679 204.944 128.176 207.383C125.673 209.845 122.549 211.752 118.827 213.127C115.106 214.502 110.852 215.212 106.067 215.212C101.282 215.212 97.0291 214.524 93.3074 213.127C89.5857 211.752 86.4622 209.823 83.9589 207.383C81.4557 204.921 79.5506 202.06 78.2657 198.756C76.9808 195.452 76.3162 191.881 76.3162 188.044C76.3162 184.207 76.9587 180.637 78.2657 177.332C79.5506 174.028 81.4557 171.145 83.9589 168.705C86.4622 166.244 89.5857 164.336 93.3074 162.939C97.0291 161.542 101.282 160.854 106.067 160.854C110.852 160.854 115.106 161.542 118.827 162.939C122.549 164.314 125.673 166.244 128.176 168.705C130.679 171.167 132.584 174.028 133.869 177.332C135.154 180.637 135.819 184.207 135.819 188.044ZM117.587 188.044C117.587 186.203 117.387 184.407 117.011 182.655C116.634 180.903 115.992 179.351 115.128 177.953C114.264 176.578 113.068 175.47 111.606 174.649C110.144 173.828 108.283 173.429 106.067 173.429C103.852 173.429 102.013 173.828 100.551 174.649C99.0893 175.47 97.893 176.578 97.0291 177.953C96.1651 179.328 95.5227 180.903 95.1461 182.655C94.7695 184.407 94.5701 186.181 94.5701 188.044C94.5701 189.907 94.7473 191.681 95.1461 193.433C95.5227 195.185 96.143 196.738 97.0291 198.135C97.893 199.51 99.0893 200.619 100.551 201.439C102.036 202.26 103.874 202.659 106.067 202.659C108.261 202.659 110.121 202.26 111.606 201.439C113.09 200.619 114.264 199.532 115.128 198.135C115.992 196.76 116.634 195.185 117.011 193.433C117.387 191.681 117.587 189.907 117.587 188.044Z" fill="#5685FA"/>
<path d="M196.672 214.147L184.377 180.792L172.06 214.147H154.981L139.141 161.919H156.576L164.44 193.367L175.826 161.919H192.928L204.315 193.367L212.179 161.919H229.613L213.774 214.147H196.672Z" fill="#5685FA"/>
<path d="M235.86 146.683C235.86 143.977 236.813 141.715 238.718 139.852C240.623 138.012 243.082 137.08 246.117 137.08C249.152 137.08 251.633 138.012 253.516 139.852C255.421 141.693 256.374 143.977 256.374 146.683C256.374 149.389 255.421 151.651 253.516 153.514C251.611 155.354 249.152 156.286 246.117 156.286C243.082 156.286 240.601 155.354 238.718 153.514C236.813 151.673 235.86 149.389 235.86 146.683ZM237.012 214.147V161.919H255.244V214.147H237.012Z" fill="#5685FA"/>
<path d="M268.912 214.147V138.899H287.144V186.337L303.892 161.919H323.608L305.597 187.601L326 214.147H305.154L287.144 188.887V214.147H268.912Z" fill="#5685FA"/>
<path d="M49.2899 253.823L46.8752 242.201V253.845H45.4575V239.23H47.7392L50.1317 250.895L52.4577 239.23H54.7395V253.845H53.1888V242.091L50.8849 253.823H49.2899Z" fill="#031E63"/>
<path d="M61.3631 250.895L60.8093 253.845H59.3029L62.0942 239.23H64.4424L67.2336 253.845H65.6165L65.0627 250.895H61.3631ZM61.5847 249.498H64.8411L63.2018 241.07L61.6068 249.498H61.5847Z" fill="#031E63"/>
<path d="M74.3447 247.502L73.4807 248.943V253.845H71.8635V239.23H73.4807V246.282L77.3574 239.23H78.9967L75.2972 245.883L79.1075 253.845H77.446L74.3225 247.502H74.3447Z" fill="#031E63"/>
<path d="M88.899 245.706V247.169H85.3324V252.359H89.7187V253.845H83.7153V239.23H89.7187V240.716H85.3324V245.706H88.899Z" fill="#031E63"/>
<path d="M103.697 248.611L100.618 239.23H102.301L104.583 246.415L106.887 239.23H108.438L105.336 248.611V253.845H103.741V248.611H103.697Z" fill="#031E63"/>
<path d="M112.47 242.756C112.47 240.516 113.577 239.074 115.815 239.074C118.052 239.074 119.182 240.516 119.182 242.756V250.318C119.182 252.536 118.074 254 115.815 254C113.555 254 112.47 252.536 112.47 250.318V242.756ZM114.087 250.407C114.087 251.738 114.641 252.514 115.815 252.514C116.989 252.514 117.543 251.738 117.543 250.407V242.689C117.543 241.381 117.011 240.583 115.815 240.583C114.618 240.583 114.087 241.381 114.087 242.689V250.407Z" fill="#031E63"/>
<path d="M125.584 250.407C125.584 251.716 126.116 252.514 127.29 252.514C128.464 252.514 128.973 251.716 128.973 250.407V239.23H130.502V250.318C130.502 252.536 129.483 254.022 127.223 254.022C124.964 254.022 123.967 252.536 123.967 250.318V239.23H125.562V250.407H125.584Z" fill="#031E63"/>
<path d="M138.698 239.23C141.002 239.23 141.955 240.405 141.955 242.578V243.776C141.955 245.373 141.401 246.393 140.138 246.792C141.468 247.191 141.977 248.278 141.977 249.831V252.115C141.977 252.758 141.977 253.379 142.265 253.867H140.626C140.448 253.446 140.36 253.068 140.36 252.093V249.786C140.36 248.145 139.585 247.613 138.233 247.613H137.081V253.867H135.464V239.252H138.721L138.698 239.23ZM138.278 246.127C139.562 246.127 140.338 245.706 140.338 244.131V242.734C140.338 241.425 139.85 240.738 138.654 240.738H137.081V246.149H138.3L138.278 246.127Z" fill="#031E63"/>
<path d="M156.819 239.23C159.101 239.23 159.987 240.316 159.987 242.468V243.155C159.987 244.708 159.544 245.661 158.281 246.06C159.699 246.46 160.231 247.591 160.231 249.187V250.429C160.231 252.625 159.168 253.845 156.886 253.845H153.519V239.23H156.819ZM156.421 245.439C157.705 245.439 158.37 245.018 158.37 243.488V242.623C158.37 241.337 157.927 240.693 156.775 240.693H155.18V245.417H156.421V245.439ZM156.908 252.359C158.104 252.359 158.636 251.738 158.636 250.385V249.099C158.636 247.48 157.993 246.925 156.598 246.925H155.18V252.381H156.908V252.359Z" fill="#031E63"/>
<path d="M166.589 250.407C166.589 251.716 167.12 252.514 168.294 252.514C169.469 252.514 169.978 251.716 169.978 250.407V239.23H171.507V250.318C171.507 252.536 170.488 254.022 168.228 254.022C165.968 254.022 164.972 252.536 164.972 250.318V239.23H166.567V250.407H166.589Z" fill="#031E63"/>
<path d="M182.76 243.133H181.21V242.645C181.21 241.337 180.7 240.56 179.548 240.56C178.396 240.56 177.887 241.337 177.887 242.623C177.887 245.905 182.782 246.216 182.782 250.318C182.782 252.536 181.719 253.978 179.482 253.978C177.244 253.978 176.203 252.536 176.203 250.318V249.476H177.732V250.385C177.732 251.693 178.285 252.47 179.437 252.47C180.589 252.47 181.143 251.693 181.143 250.385C181.143 247.125 176.27 246.814 176.27 242.712C176.27 240.449 177.311 239.052 179.504 239.052C181.697 239.052 182.76 240.494 182.76 242.712V243.133Z" fill="#031E63"/>
<path d="M189.162 239.23V253.845H187.545V239.23H189.162Z" fill="#031E63"/>
<path d="M195.609 253.845H194.147V239.23H196.207L199.596 249.786V239.23H201.036V253.845H199.353L195.609 242.024V253.845Z" fill="#031E63"/>
<path d="M211.204 245.706V247.169H207.638V252.359H212.024V253.845H206.021V239.23H212.024V240.716H207.638V245.706H211.204Z" fill="#031E63"/>
<path d="M223.167 243.133H221.616V242.645C221.616 241.337 221.107 240.56 219.955 240.56C218.803 240.56 218.293 241.337 218.293 242.623C218.293 245.905 223.189 246.216 223.189 250.318C223.189 252.536 222.126 253.978 219.888 253.978C217.651 253.978 216.61 252.536 216.61 250.318V249.476H218.138V250.385C218.138 251.693 218.692 252.47 219.844 252.47C220.996 252.47 221.55 251.693 221.55 250.385C221.55 247.125 216.676 246.814 216.676 242.712C216.676 240.449 217.717 239.052 219.91 239.052C222.104 239.052 223.167 240.494 223.167 242.712V243.133Z" fill="#031E63"/>
<path d="M234.265 243.133H232.715V242.645C232.715 241.337 232.205 240.56 231.053 240.56C229.901 240.56 229.392 241.337 229.392 242.623C229.392 245.905 234.288 246.216 234.288 250.318C234.288 252.536 233.224 253.978 230.987 253.978C228.749 253.978 227.708 252.536 227.708 250.318V249.476H229.237V250.385C229.237 251.693 229.791 252.47 230.943 252.47C232.094 252.47 232.648 251.693 232.648 250.385C232.648 247.125 227.775 246.814 227.775 242.712C227.775 240.449 228.816 239.052 231.009 239.052C233.202 239.052 234.265 240.494 234.265 242.712V243.133Z" fill="#031E63"/>
<path d="M250.57 246.038V247.524H247.203V253.845H245.585V239.23H251.389V240.716H247.225V246.038H250.592H250.57Z" fill="#031E63"/>
<path d="M256.019 253.845V239.23H257.637V252.359H261.801V253.845H255.997H256.019Z" fill="#031E63"/>
<path d="M266.254 242.756C266.254 240.516 267.362 239.074 269.599 239.074C271.836 239.074 272.966 240.516 272.966 242.756V250.318C272.966 252.536 271.859 254 269.599 254C267.339 254 266.254 252.536 266.254 250.318V242.756ZM267.849 250.407C267.849 251.738 268.403 252.514 269.577 252.514C270.751 252.514 271.305 251.738 271.305 250.407V242.689C271.305 241.381 270.773 240.583 269.577 240.583C268.381 240.583 267.849 241.381 267.849 242.689V250.407Z" fill="#031E63"/>
<path d="M281.694 253.845H279.457L277.463 239.23H279.036L280.742 251.671L282.359 239.252H283.954L285.571 251.693L287.21 239.23H288.628L286.657 253.845H284.508L283.112 243.931L281.672 253.845H281.694Z" fill="#031E63"/>
<path d="M193.682 44.7988H188.453C170.377 44.7988 155.734 59.4582 155.734 77.5551V129.539H160.962C179.039 129.539 193.682 114.88 193.682 96.7831V82.7891H207.66C225.737 82.7891 240.38 68.1297 240.38 50.0327V44.7988H193.659H193.682Z" fill="#5685FA"/>
<path d="M129.128 106.364H102.479C88.5667 106.364 77.2688 117.674 77.2688 131.602H127.688C140.958 131.602 151.813 121.334 152.81 108.293V84.9846H152.699C151.525 96.9605 141.401 106.342 129.128 106.342V106.364Z" fill="#5583FB"/>
<path d="M191.378 0.000204938C171.396 0.000204938 155.069 15.458 153.563 35.063V70.1258H153.74C155.512 52.0954 170.753 37.9683 189.207 37.9683H229.325C250.282 37.9683 267.273 20.958 267.273 -0.0219727H191.378V0.000204938Z" fill="#54ECFA"/>
<path d="M128.331 102.106H93.8169V98.624C93.8169 86.6037 103.564 76.8677 115.549 76.8677H150.063V80.3496C150.063 92.3699 140.316 102.106 128.331 102.106Z" fill="#54ECFA"/>
</g>
<defs>
<clipPath id="clip0_702_11643">
<rect width="326" height="254" fill="white"/>
</clipPath>
</defs>
</svg>
