<svg width="140" height="25" viewBox="0 0 140 25" fill="none" xmlns="http://www.w3.org/2000/svg">
<path d="M19.8069 8.58496C16.5897 8.58496 13.981 11.1937 13.981 14.4109V23.657H14.9112C18.1284 23.657 20.7371 21.0482 20.7371 17.831V15.3411H23.227C26.4442 15.3411 29.053 12.7324 29.053 9.51516V8.58496H19.8069Z" fill="#5685FA"/>
<path d="M9.23905 19.5375H4.49014C2.01427 19.5375 0 21.5448 0 24.0277H8.98027C11.3442 24.0277 13.2746 22.2022 13.4494 19.8802V15.7328H13.4284C13.2186 17.866 11.4142 19.5305 9.23206 19.5305L9.23905 19.5375Z" fill="#5685FA"/>
<path d="M20.332 0.618896C16.7721 0.618896 13.8626 3.36753 13.5968 6.85753V13.0962H13.6318C13.9465 9.89292 16.6602 7.37508 19.9474 7.37508H27.0882C30.823 7.37508 33.8444 4.34669 33.8444 0.618896H20.325H20.332Z" fill="#54ECFA"/>
<path d="M9.10669 18.7823H2.95898V18.1668C2.95898 16.0266 4.69349 14.2921 6.83365 14.2921H12.9814V14.9076C12.9814 17.0478 11.2469 18.7823 9.10669 18.7823Z" fill="#54ECFA"/>
<path d="M49.0063 11.9317H45.3344V24.3041H39.5784V11.9317H36.8438V7.83326H39.5784V7.39963C39.5784 5.16156 40.2009 3.40607 41.4458 2.14016C42.6907 0.874245 44.649 0.237793 47.3068 0.237793C47.9992 0.237793 48.6706 0.265769 49.3 0.321721C49.9295 0.377672 50.531 0.4616 51.0835 0.573504H56.8395V19.2614C56.8395 19.6881 56.9375 20.0168 57.1263 20.2546C57.3151 20.4924 57.6928 20.6043 58.2383 20.6043C58.5741 20.6043 58.9797 20.5693 59.4623 20.5064L59.6441 24.2062C59.1615 24.3391 58.616 24.444 58.0075 24.5279C57.3921 24.6048 56.7696 24.6468 56.1192 24.6468C55.161 24.6468 54.3567 24.5139 53.7062 24.2411C53.0558 23.9754 52.5452 23.6117 52.1606 23.1641C51.7759 22.7165 51.5031 22.2059 51.3353 21.6324C51.1674 21.0589 51.0835 20.4714 51.0835 19.8699V4.50412C50.3841 4.32228 49.5728 4.23835 48.6356 4.23835C47.4816 4.23835 46.6423 4.46915 46.1178 4.93076C45.5932 5.39236 45.3275 6.20366 45.3275 7.36466V7.83326H48.9993V11.9317H49.0063Z" fill="#5685FA"/>
<path d="M79.7308 16.0722C79.7308 17.2821 79.528 18.4082 79.1154 19.4503C78.7027 20.4924 78.1082 21.4016 77.3179 22.1709C76.5276 22.9473 75.5414 23.5487 74.3665 23.9824C73.1915 24.416 71.8486 24.6398 70.3379 24.6398C68.8272 24.6398 67.4844 24.423 66.3094 23.9824C65.1344 23.5487 64.1482 22.9403 63.3579 22.1709C62.5676 21.3946 61.9661 20.4924 61.5605 19.4503C61.1548 18.4082 60.945 17.2821 60.945 16.0722C60.945 14.8622 61.1478 13.7362 61.5605 12.6941C61.9661 11.652 62.5676 10.7428 63.3579 9.97342C64.1482 9.19709 65.1344 8.5956 66.3094 8.15498C67.4844 7.71436 68.8272 7.49755 70.3379 7.49755C71.8486 7.49755 73.1915 7.71436 74.3665 8.15498C75.5414 8.58861 76.5276 9.19709 77.3179 9.97342C78.1082 10.7498 78.7097 11.652 79.1154 12.6941C79.521 13.7362 79.7308 14.8622 79.7308 16.0722ZM73.9748 16.0722C73.9748 15.4917 73.9118 14.9252 73.7929 14.3726C73.674 13.8201 73.4712 13.3305 73.1985 12.8899C72.9257 12.4563 72.548 12.1066 72.0864 11.8478C71.6248 11.589 71.0373 11.4631 70.3379 11.4631C69.6385 11.4631 69.058 11.589 68.5964 11.8478C68.1348 12.1066 67.7571 12.4563 67.4844 12.8899C67.2116 13.3235 67.0088 13.8201 66.8899 14.3726C66.771 14.9252 66.708 15.4847 66.708 16.0722C66.708 16.6597 66.764 17.2192 66.8899 17.7717C67.0088 18.3242 67.2046 18.8138 67.4844 19.2544C67.7571 19.6881 68.1348 20.0378 68.5964 20.2965C69.065 20.5553 69.6455 20.6812 70.3379 20.6812C71.0303 20.6812 71.6178 20.5553 72.0864 20.2965C72.555 20.0378 72.9257 19.6951 73.1985 19.2544C73.4712 18.8208 73.674 18.3242 73.7929 17.7717C73.9118 17.2192 73.9748 16.6597 73.9748 16.0722Z" fill="#5685FA"/>
<path d="M98.9363 24.3041L95.0547 13.7851L91.166 24.3041H85.7736L80.7729 7.83326H86.2772L88.7601 17.7507L92.355 7.83326H97.7543L101.349 17.7507L103.832 7.83326H109.336L104.336 24.3041H98.9363Z" fill="#5685FA"/>
<path d="M111.316 3.02839C111.316 2.17513 111.616 1.46174 112.218 0.874248C112.819 0.293747 113.596 0 114.554 0C115.512 0 116.295 0.293747 116.89 0.874248C117.491 1.45475 117.792 2.17513 117.792 3.02839C117.792 3.88166 117.491 4.59505 116.89 5.18254C116.288 5.76304 115.512 6.05679 114.554 6.05679C113.596 6.05679 112.812 5.76304 112.218 5.18254C111.616 4.60204 111.316 3.88166 111.316 3.02839ZM111.672 24.3041V7.83326H117.428V24.3041H111.672Z" fill="#5685FA"/>
<path d="M121.744 24.3041V0.573512H127.5V15.5336L132.787 7.83326H139.012L133.326 15.9323L139.767 24.3041H133.186L127.5 16.3379V24.3041H121.744Z" fill="#5685FA"/>
</svg>
